# Blender 4.3.2
# www.blender.org
mtllib floor-thick.mtl
o floor-thick.038
v -0.500000 -0.500000 0.000000
v 0.500000 -0.500000 0.000000
v -0.500000 -0.500000 -0.200000
v 0.500000 -0.500000 -0.200000
v -0.500000 0.500000 0.000000
v -0.500000 0.500000 -0.200000
v 0.500000 0.500000 0.000000
v 0.500000 0.500000 -0.200000
vn -0.0000 -1.0000 -0.0000
vn -1.0000 -0.0000 -0.0000
vn -0.0000 -0.0000 1.0000
vn -0.0000 1.0000 -0.0000
vn 1.0000 -0.0000 -0.0000
vn -0.0000 -0.0000 -1.0000
vt 0.468750 0.225000
vt 0.468750 0.025000
s 1
usemtl colormap.023
f 3/1/1 2/2/1 1/2/1
f 2/2/1 3/1/1 4/1/1
f 5/2/2 3/1/2 1/2/2
f 3/1/2 5/2/2 6/1/2
f 5/2/3 2/2/3 7/2/3
f 2/2/3 5/2/3 1/2/3
f 8/1/4 5/2/4 7/2/4
f 5/2/4 8/1/4 6/1/4
f 8/1/5 2/2/5 4/1/5
f 2/2/5 8/1/5 7/2/5
f 3/1/6 8/1/6 4/1/6
f 8/1/6 3/1/6 6/1/6
