# Blender 4.3.2
# www.blender.org
mtllib indicator-round-b.mtl
o indicator-round-b.003
v 0.500000 0.000000 0.000000
v 0.433013 0.250000 0.000000
v 0.433013 -0.250000 0.000000
v 0.396472 -0.000000 0.000000
v 0.343355 -0.198236 0.000000
v 0.343355 0.198236 0.000000
v 0.250000 -0.433013 0.000000
v 0.250000 0.433013 0.000000
v 0.198236 -0.343355 0.000000
v 0.198236 0.343355 0.000000
v 0.000000 -0.500000 0.000000
v 0.000000 -0.396472 0.000000
v 0.000000 0.500000 0.000000
v 0.000000 0.396472 0.000000
v -0.198236 0.343355 0.000000
v -0.250000 0.433013 0.000000
v -0.343355 0.198236 0.000000
v -0.250000 -0.433013 0.000000
v -0.198236 -0.343355 0.000000
v -0.343355 -0.198236 0.000000
v -0.433013 0.250000 0.000000
v -0.433013 -0.250000 0.000000
v -0.396472 0.000000 0.000000
v -0.500000 0.000000 0.000000
vn -0.0000 -0.0000 -1.0000
vt 0.281250 0.375000
s 1
usemtl colormap.031
f 3/1/1 2/1/1 1/1/1
f 2/1/1 3/1/1 4/1/1
f 4/1/1 3/1/1 5/1/1
f 6/1/1 2/1/1 4/1/1
f 5/1/1 3/1/1 7/1/1
f 2/1/1 6/1/1 8/1/1
f 5/1/1 7/1/1 9/1/1
f 8/1/1 6/1/1 10/1/1
f 9/1/1 7/1/1 11/1/1
f 9/1/1 11/1/1 12/1/1
f 8/1/1 10/1/1 13/1/1
f 13/1/1 10/1/1 14/1/1
f 13/1/1 14/1/1 15/1/1
f 13/1/1 15/1/1 16/1/1
f 16/1/1 15/1/1 17/1/1
f 12/1/1 11/1/1 18/1/1
f 12/1/1 18/1/1 19/1/1
f 19/1/1 18/1/1 20/1/1
f 16/1/1 17/1/1 21/1/1
f 20/1/1 18/1/1 22/1/1
f 21/1/1 17/1/1 23/1/1
f 20/1/1 22/1/1 23/1/1
f 21/1/1 23/1/1 22/1/1
f 21/1/1 22/1/1 24/1/1
