# Blender 4.3.2
# www.blender.org
mtllib flag.mtl
o flag.011
v 0.025000 0.050000 -0.500000
v -0.025000 0.050000 -0.500000
v 0.025000 0.050000 -0.600000
v -0.025000 0.050000 -0.600000
v 0.050000 0.025000 -0.500000
v 0.050000 -0.025000 -0.500000
v 0.025000 -0.050000 -0.500000
v -0.025000 -0.050000 -0.500000
v -0.050000 0.025000 -0.500000
v -0.050000 -0.025000 -0.500000
v -0.050000 0.025000 -0.600000
v -0.025000 -0.050000 -0.600000
v 0.025000 -0.050000 -0.600000
v -0.050000 -0.025000 -0.600000
v 0.050000 -0.025000 -0.600000
v 0.050000 0.025000 -0.600000
v 0.050000 0.025000 -0.900000
v 0.050000 0.025000 -0.800000
v 0.025000 0.050000 -0.900000
v 0.025000 0.050000 -0.800000
v 0.050000 -0.025000 -0.900000
v 0.025000 -0.050000 -0.900000
v -0.025000 -0.050000 -0.900000
v -0.025000 0.050000 -0.900000
v -0.050000 -0.025000 -0.900000
v -0.050000 0.025000 -0.900000
v -0.025000 -0.050000 -0.800000
v -0.050000 -0.025000 -0.800000
v 0.050000 -0.025000 -0.800000
v -0.025000 0.050000 -0.800000
v 0.025000 -0.050000 -0.800000
v -0.050000 0.025000 -0.800000
v 0.014476 0.381539 -0.500000
v 0.014476 0.381539 -0.900000
v 0.014476 0.418461 -0.500000
v 0.014476 0.418461 -0.900000
v 0.025612 0.171124 -0.500000
v 0.025612 0.171124 -0.900000
v -0.017817 0.265740 -0.500000
v -0.017817 0.265740 -0.900000
v -0.017817 0.311183 -0.500000
v -0.017817 0.311183 -0.900000
v 0.000000 0.450000 -0.500000
v 0.000000 0.450000 -0.900000
v 0.000000 0.350000 -0.500000
v 0.000000 0.350000 -0.900000
v 0.025612 0.105799 -0.500000
v 0.025612 0.105799 -0.900000
v 0.000000 0.050000 -0.500000
v 0.000000 0.050000 -0.900000
v -0.025000 -0.025000 0.000000
v 0.025000 -0.025000 0.000000
v -0.025000 -0.025000 -0.950000
v 0.025000 -0.025000 -0.950000
v 0.025000 0.025000 -0.950000
v -0.025000 0.025000 -0.950000
v 0.025000 0.025000 0.000000
v -0.025000 0.025000 0.000000
vn 0.3826 0.9239 0.0033
vn -0.3826 0.9239 -0.0033
vn 0.3827 0.9239 -0.0000
vn -0.3827 0.9239 -0.0000
vn -0.0000 -0.0000 1.0000
vn -0.3832 0.9234 -0.0218
vn -0.9234 0.3832 0.0218
vn -0.9239 0.3827 -0.0001
vn -0.3827 0.9239 0.0001
vn -0.9234 -0.3832 -0.0218
vn -0.3832 -0.9234 0.0218
vn -0.3827 -0.9239 -0.0000
vn -0.9239 -0.3827 -0.0000
vn -0.9239 0.3826 -0.0034
vn -0.9239 -0.3826 0.0034
vn -0.9239 0.3827 -0.0000
vn -0.0000 -0.0000 -1.0000
vn 0.9234 0.3832 -0.0218
vn 0.3832 0.9234 0.0218
vn 0.3827 0.9239 -0.0001
vn -0.3827 -0.9239 -0.0001
vn 0.3826 -0.9239 -0.0033
vn -0.3826 -0.9239 0.0033
vn 0.3827 -0.9239 -0.0000
vn 0.9234 -0.3832 0.0218
vn 0.3832 -0.9234 -0.0218
vn 0.3827 -0.9239 0.0001
vn 0.9239 -0.3827 -0.0000
vn 0.9239 0.3827 -0.0000
vn -0.9986 -0.0215 -0.0491
vn -0.9986 0.0215 0.0491
vn -0.9781 -0.0186 0.2071
vn -0.9165 -0.3970 0.0492
vn -0.9769 -0.2136 -0.0000
vn -0.9789 -0.0210 -0.2035
vn -0.9987 -0.0216 -0.0472
vn 0.9769 0.2136 -0.0000
vn -0.9770 0.2134 -0.0000
vn -0.9770 -0.2134 -0.0000
vn -0.9088 -0.4172 -0.0000
vn -0.9770 0.0384 0.2100
vn 0.9088 -0.4172 -0.0000
vn 0.9761 -0.2153 -0.0282
vn -0.0000 -1.0000 -0.0000
vn -0.0000 1.0000 -0.0000
vn 1.0000 -0.0000 -0.0000
vn -1.0000 -0.0000 -0.0000
vn 0.9239 0.3826 0.0034
vn 0.9239 -0.3826 -0.0034
vn 0.9239 -0.3827 -0.0001
vn 0.9770 -0.2134 -0.0000
vn 0.9770 0.2134 -0.0000
vn -0.9088 0.4172 -0.0000
vn -0.9769 0.2136 -0.0000
vn 0.9769 -0.2136 -0.0000
vn 0.9769 -0.2136 -0.0001
vt 0.593750 0.325000
vt 0.593750 0.275000
vt 0.593750 0.425000
vt 0.593750 0.475000
vt 0.468750 0.225000
vt 0.468750 0.025000
s 1
usemtl colormap.018
f 3/1/1 2/2/2 1/2/3
f 2/2/2 3/1/1 4/1/4
f 1/2/5 6/2/5 5/2/5
f 6/2/5 1/2/5 7/2/5
f 7/2/5 1/2/5 2/2/5
f 7/2/5 2/2/5 8/2/5
f 8/2/5 2/2/5 9/2/5
f 8/2/5 9/2/5 10/2/5
f 2/2/6 11/1/7 9/2/8
f 11/1/7 2/2/6 4/1/9
f 10/2/10 12/1/11 8/2/12
f 12/1/11 10/2/10 14/1/13
f 9/2/14 14/1/15 10/2/13
f 14/1/15 9/2/14 11/1/16
f 13/1/17 16/1/17 15/1/17
f 16/1/17 13/1/17 3/1/17
f 3/1/17 13/1/17 12/1/17
f 3/1/17 12/1/17 4/1/17
f 4/1/17 12/1/17 14/1/17
f 4/1/17 14/1/17 11/1/17
f 18/3/18 19/4/19 20/3/20
f 22/4/17 17/4/17 21/4/17
f 19/4/17 22/4/17 23/4/17
f 19/4/17 23/4/17 24/4/17
f 24/4/17 25/4/17 26/4/17
f 28/3/10 23/4/11 27/3/21
f 19/4/1 30/3/2 20/3/3
f 31/3/22 23/4/23 22/4/24
f 21/4/25 31/3/26 22/4/27
f 31/3/26 21/4/25 29/3/28
f 32/3/14 25/4/15 28/3/13
f 20/3/5 29/3/5 18/3/5
f 29/3/5 20/3/5 31/3/5
f 31/3/5 30/3/5 27/3/5
f 27/3/5 30/3/5 32/3/5
f 27/3/5 32/3/5 28/3/5
f 3/1/19 5/2/18 16/1/29
f 35/2/30 34/4/31 33/2/32
f 34/4/31 35/2/30 36/4/33
f 39/2/34 38/4/35 37/2/36
f 40/4/37 39/2/37 38/4/37
f 41/2/38 40/4/39 39/2/39
f 43/2/40 36/4/33 35/2/30
f 37/2/36 48/4/41 47/2/38
f 48/4/41 37/2/36 38/4/35
f 49/2/42 50/4/42 47/2/43
f 53/5/44 52/6/44 51/6/44
f 52/6/44 53/5/44 54/5/44
f 53/5/17 55/5/17 54/5/17
f 55/5/17 53/5/17 56/5/17
f 58/6/5 52/6/5 57/6/5
f 52/6/5 58/6/5 51/6/5
f 55/5/45 58/6/45 57/6/45
f 58/6/45 55/5/45 56/5/45
f 55/5/46 52/6/46 54/5/46
f 52/6/46 55/5/46 57/6/46
f 58/6/47 53/5/47 51/6/47
f 53/5/47 58/6/47 56/5/47
f 12/1/23 7/2/22 8/2/12
f 7/2/22 12/1/23 13/1/24
f 19/4/19 18/3/18 17/4/29
f 17/4/17 22/4/17 19/4/17
f 24/4/17 23/4/17 25/4/17
f 23/4/11 28/3/10 25/4/13
f 17/4/48 29/3/49 21/4/28
f 29/3/49 17/4/48 18/3/29
f 30/3/2 19/4/1 24/4/4
f 23/4/23 31/3/22 27/3/12
f 25/4/15 32/3/14 26/4/16
f 30/3/6 26/4/7 32/3/16
f 26/4/7 30/3/6 24/4/9
f 31/3/5 20/3/5 30/3/5
f 5/2/18 3/1/19 1/2/3
f 15/1/25 7/2/26 13/1/27
f 7/2/26 15/1/25 6/2/50
f 16/1/48 6/2/49 15/1/28
f 6/2/49 16/1/48 5/2/29
f 42/4/51 41/2/51 40/4/52
f 36/4/33 43/2/40 44/4/40
f 45/2/53 42/4/54 41/2/54
f 46/4/53 33/2/32 34/4/31
f 46/4/42 45/2/42 42/4/55
f 33/2/56 45/2/42 46/4/42
f 48/4/55 47/2/43 50/4/42
