# Blender 4.3.2
# www.blender.org
mtllib wall-corner-rounded-low.mtl
o wall-corner-rounded-low.004
v 0.300000 -0.300000 -0.000000
v -0.500000 -0.300000 -0.000000
v 0.300000 -0.300000 -0.500000
v -0.500000 -0.300000 -0.500000
v -0.500000 -0.500000 -0.000000
v -0.500000 -0.500000 -0.500000
v 0.500000 0.500000 -0.500000
v 0.300000 0.500000 -0.500000
v 0.500000 -0.300000 -0.500000
v 0.450000 -0.450000 -0.500000
v 0.300000 -0.500000 -0.500000
v 0.500000 -0.300000 0.000000
v 0.500000 0.500000 0.000000
v 0.300000 -0.500000 0.000000
v 0.300000 0.500000 0.000000
v 0.450000 -0.450000 0.000000
vn -0.0000 1.0000 -0.0000
vn -1.0000 -0.0000 -0.0000
vn -0.0000 -0.0000 -1.0000
vn 1.0000 -0.0000 -0.0000
vn 0.9871 -0.1602 -0.0000
vn -0.0000 -0.0000 1.0000
vn -0.8660 -0.0652 -0.4957
vn -0.7071 -0.2706 0.6533
vn 0.1602 -0.9871 -0.0000
vn 0.7060 -0.7075 -0.0314
vn 0.7071 -0.7071 -0.0000
vn 0.7075 -0.7060 -0.0314
vn -0.0000 -1.0000 -0.0000
vt 0.468750 0.225000
vt 0.468750 0.025000
s 1
usemtl colormap.053
f 3/1/1 2/2/1 1/2/1
f 2/2/1 3/1/1 4/1/1
f 2/2/2 6/1/2 5/2/2
f 6/1/2 2/2/2 4/1/2
f 9/1/3 8/1/3 7/1/3
f 8/1/3 9/1/3 10/1/3
f 8/1/3 10/1/3 11/1/3
f 8/1/3 11/1/3 3/1/3
f 7/1/4 12/2/5 9/1/5
f 12/2/5 7/1/4 13/2/4
f 15/2/6 12/2/6 13/2/6
f 12/2/6 15/2/6 16/2/6
f 16/2/6 15/2/6 14/2/6
f 14/2/6 15/2/7 1/2/8
f 14/2/6 2/2/6 5/2/6
f 7/1/1 15/2/1 13/2/1
f 15/2/1 7/1/1 8/1/1
f 11/1/9 16/2/10 14/2/9
f 16/2/10 11/1/9 10/1/11
f 9/1/5 16/2/12 10/1/11
f 16/2/12 9/1/5 12/2/5
f 3/1/3 11/1/3 6/1/3
f 3/1/3 6/1/3 4/1/3
f 5/2/13 11/1/9 14/2/9
f 11/1/9 5/2/13 6/1/13
f 15/2/7 3/1/2 1/2/8
f 3/1/2 15/2/7 8/1/2
f 14/2/6 1/2/6 2/2/6
