# Blender 4.3.2
# www.blender.org
mtllib floor-square.mtl
o floor-square.051
v 0.500000 0.000000 0.000000
v 0.500000 0.500000 0.000000
v -0.000000 0.000000 0.000000
v -0.000000 0.500000 0.000000
v -0.000000 -0.500000 0.000000
v -0.500000 -0.500000 0.000000
v -0.500000 0.000000 0.000000
v 0.500000 -0.500000 0.000000
v 0.500000 0.000000 0.000000
v 0.000000 -0.500000 0.000000
v 0.000000 0.000000 0.000000
v 0.000000 0.500000 0.000000
v -0.500000 0.000000 0.000000
v -0.500000 0.500000 0.000000
vn -0.0000 -0.0000 -1.0000
vt 0.468750 0.025000
vt 0.468750 0.075000
s 1
usemtl colormap.022
f 3/1/1 2/1/1 1/1/1
f 2/1/1 3/1/1 4/1/1
f 6/1/1 3/1/1 5/1/1
f 3/1/1 6/1/1 7/1/1
f 10/2/1 9/2/1 8/2/1
f 9/2/1 10/2/1 11/2/1
f 13/2/1 12/2/1 11/2/1
f 12/2/1 13/2/1 14/2/1
