# Blender 4.3.2
# www.blender.org
mtllib canon.mtl
o cannon-ball
v 0.020885 0.057490 -0.036173
v 0.000000 0.071062 -0.000000
v -0.020885 0.057490 -0.036173
v -0.020885 -0.057490 0.036173
v 0.000000 -0.071062 0.000000
v -0.041769 -0.057490 0.000000
v 0.041769 -0.057490 0.000000
v 0.020885 -0.057490 -0.036173
v -0.020885 -0.057490 -0.036173
v -0.020885 0.057490 0.036173
v -0.041769 0.057490 -0.000000
v 0.020885 0.057490 0.036173
v 0.020885 -0.057490 0.036173
v 0.041769 0.057490 -0.000000
v 0.033792 -0.021959 -0.058530
v 0.067584 -0.021959 0.000000
v 0.033792 -0.021959 0.058530
v -0.033792 -0.021959 0.058530
v 0.067584 0.021959 -0.000000
v 0.033792 0.021959 0.058530
v -0.033792 0.021959 0.058530
v -0.033792 -0.021959 -0.058530
v -0.033792 0.021959 -0.058530
v 0.033792 0.021959 -0.058530
v -0.067584 -0.021959 0.000000
v -0.067584 0.021959 -0.000000
vn 0.3233 0.7628 -0.5600
vn -0.3233 0.7628 -0.5600
vn -0.0000 1.0000 -0.0000
vn -0.3233 -0.7628 0.5600
vn -0.6466 -0.7628 -0.0000
vn -0.0000 -1.0000 -0.0000
vn 0.6466 -0.7628 -0.0000
vn 0.3233 -0.7628 -0.5600
vn -0.3233 -0.7628 -0.5600
vn -0.6466 0.7628 -0.0000
vn -0.3233 0.7628 0.5600
vn 0.3233 0.7628 0.5600
vn 0.3233 -0.7628 0.5600
vn 0.6466 0.7628 -0.0000
vn 0.4795 -0.2834 -0.8305
vn 0.9590 -0.2834 -0.0000
vn 0.4795 -0.2834 0.8305
vn -0.4795 -0.2834 0.8305
vn 0.9590 0.2834 -0.0000
vn 0.4795 0.2834 0.8305
vn -0.4795 0.2834 0.8305
vn -0.4795 -0.2834 -0.8305
vn -0.4795 0.2834 -0.8305
vn 0.4795 0.2834 -0.8305
vn -0.9590 -0.2834 -0.0000
vn -0.9590 0.2834 -0.0000
vt 0.468750 0.205902
vt 0.468750 0.225000
vt 0.468750 0.044098
vt 0.468750 0.025000
vt 0.468750 0.094098
vt 0.468750 0.155902
s 1
usemtl colormap
f 1/1/1 3/1/2 2/2/3
f 4/3/4 6/3/5 5/4/6
f 7/3/7 5/4/6 8/3/8
f 5/4/6 6/3/5 9/3/9
f 2/2/3 11/1/10 10/1/11
f 2/2/3 10/1/11 12/1/12
f 13/3/13 5/4/6 7/3/7
f 5/4/6 9/3/9 8/3/8
f 13/3/13 4/3/4 5/4/6
f 3/1/2 11/1/10 2/2/3
f 1/1/1 2/2/3 14/1/14
f 14/1/14 2/2/3 12/1/12
f 15/5/15 16/5/16 8/3/8
f 7/3/7 8/3/8 16/5/16
f 13/3/13 17/5/17 4/3/4
f 18/5/18 4/3/4 17/5/17
f 14/1/14 12/1/12 19/6/19
f 20/6/20 19/6/19 12/1/12
f 17/5/17 20/6/20 18/5/18
f 21/6/21 18/5/18 20/6/20
f 22/5/22 23/6/23 15/5/15
f 24/6/24 15/5/15 23/6/23
f 19/6/19 20/6/20 16/5/16
f 17/5/17 16/5/16 20/6/20
f 20/6/20 12/1/12 21/6/21
f 10/1/11 21/6/21 12/1/12
f 22/5/22 9/3/9 25/5/25
f 6/3/5 25/5/25 9/3/9
f 6/3/5 4/3/4 25/5/25
f 18/5/18 25/5/25 4/3/4
f 26/6/26 21/6/21 11/1/10
f 10/1/11 11/1/10 21/6/21
f 23/6/23 3/1/2 24/6/24
f 1/1/1 24/6/24 3/1/2
f 24/6/24 1/1/1 19/6/19
f 14/1/14 19/6/19 1/1/1
f 22/5/22 25/5/25 23/6/23
f 26/6/26 23/6/23 25/5/25
f 9/3/9 22/5/22 8/3/8
f 15/5/15 8/3/8 22/5/22
f 24/6/24 19/6/19 15/5/15
f 16/5/16 15/5/15 19/6/19
f 16/5/16 17/5/17 7/3/7
f 13/3/13 7/3/7 17/5/17
f 25/5/25 18/5/18 26/6/26
f 21/6/21 26/6/26 18/5/18
f 23/6/23 26/6/26 3/1/2
f 11/1/10 3/1/2 26/6/26
